P3 50 50 255
255
0
0
0
100
255
100
255
50
255
100
0
0
255
255
255
0
0
0
100
255
100
255
50
255
100
0
0
255
255
255
0
0
0
100
255
100
255
50
255
100
0
0
255
255
255
0
0
0
100
255
100
255
50
255
100
0
0
255
255
255
0
0
0
100
255
100
255
50
255
100
0
0
255
255
255
0
0
0
100
255
100
255
50
255
100
0
0
255
255
255
0
0
0
100
255
100
255
50
255
100
0
0
255
255
255
0
0
0
100
255
100
255
50
255
100
0
0
255
255
255
0
0
0
100
255
100
255
50
255
100
0
0
255
255
255
0
0
0
100
255
100
255
50
255
100
0
0
255
255
255
0
0
0
100
255
100
255
50
255
100
0
0
255
255
255
0
0
0
100
255
100
255
50
255
100
0
0
255
255
255
0
0
0
100
255
100
255
50
255
100
0
0
255
255
255
0
0
0
100
255
100
255
50
255
100
0
0
255
255
255
0
0
0
100
255
100
255
50
255
100
0
0
255
255
255
0
0
0
100
255
100
255
50
255
100
0
0
255
255
255
0
0
0
100
255
100
255
50
255
100
0
0
255
255
255
0
0
0
100
255
100
255
50
255
100
0
0
255
255
255
0
0
0
100
255
100
255
50
255
100
0
0
255
255
255
0
0
0
100
255
100
255
50
255
100
0
0
255
255
255
0
0
0
100
255
100
255
50
255
100
0
0
255
255
255
0
0
0
100
255
100
255
50
255
100
0
0
255
255
255
0
0
0
100
255
100
255
50
255
100
0
0
255
255
255
0
0
0
100
255
100
255
50
255
100
0
0
255
255
255
0
0
0
100
255
100
255
50
255
100
0
0
255
255
255
0
0
0
100
255
100
255
50
255
100
0
0
255
255
255
0
0
0
100
255
100
255
50
255
100
0
0
255
255
255
0
0
0
100
255
100
255
50
255
100
0
0
255
255
255
0
0
0
100
255
100
255
50
255
100
0
0
255
255
255
0
0
0
100
255
100
255
50
255
100
0
0
255
255
255
0
0
0
100
255
100
255
50
255
100
0
0
255
255
255
0
0
0
100
255
100
255
50
255
100
0
0
255
255
255
0
0
0
100
255
100
255
50
255
100
0
0
255
255
255
0
0
0
100
255
100
255
50
255
100
0
0
255
255
255
0
0
0
100
255
100
255
50
255
100
0
0
255
255
255
0
0
0
100
255
100
255
50
255
100
0
0
255
255
255
0
0
0
100
255
100
255
50
255
100
0
0
255
255
255
0
0
0
100
255
100
255
50
255
100
0
0
255
255
255
0
0
0
100
255
100
255
50
255
100
0
0
255
255
255
0
0
0
100
255
100
255
50
255
100
0
0
255
255
255
0
0
0
100
255
100
255
50
255
100
0
0
255
255
255
0
0
0
100
255
100
255
50
255
100
0
0
255
255
255
0
0
0
100
255
100
255
50
255
100
0
0
255
255
255
0
0
0
100
255
100
255
50
255
100
0
0
255
255
255
0
0
0
100
255
100
255
50
255
100
0
0
255
255
255
0
0
0
100
255
100
255
50
255
100
0
0
255
255
255
0
0
0
100
255
100
255
50
255
100
0
0
255
255
255
0
0
0
100
255
100
255
50
255
100
0
0
255
255
255
0
0
0
100
255
100
255
50
255
100
0
0
255
255
255
0
0
0
100
255
100
255
50
255
100
0
0
255
255
255
0
0
0
100
255
100
255
50
255
100
0
0
255
255
255
0
0
0
100
255
100
255
50
255
100
0
0
255
255
255
0
0
0
100
255
100
255
50
255
100
0
0
255
255
255
0
0
0
100
255
100
255
50
255
100
0
0
255
255
255
0
0
0
100
255
100
255
50
255
100
0
0
255
255
255
0
0
0
100
255
100
255
50
255
100
0
0
255
255
255
0
0
0
100
255
100
255
50
255
100
0
0
255
255
255
0
0
0
100
255
100
255
50
255
100
0
0
255
255
255
0
0
0
100
255
100
255
50
255
100
0
0
255
255
255
0
0
0
100
255
100
255
50
255
100
0
0
255
255
255
0
0
0
100
255
100
255
50
255
100
0
0
255
255
255
0
0
0
100
255
100
255
50
255
100
0
0
255
255
255
0
0
0
100
255
100
255
50
255
100
0
0
255
255
255
0
0
0
100
255
100
255
50
255
100
0
0
255
255
255
0
0
0
100
255
100
255
50
255
100
0
0
255
255
255
0
0
0
100
255
100
255
50
255
100
0
0
255
255
255
0
0
0
100
255
100
255
50
255
100
0
0
255
255
255
0
0
0
100
255
100
255
50
255
100
0
0
255
255
255
0
0
0
100
255
100
255
50
255
100
0
0
255
255
255
0
0
0
100
255
100
255
50
255
100
0
0
255
255
255
0
0
0
100
255
100
255
50
255
100
0
0
255
255
255
0
0
0
100
255
100
255
50
255
100
0
0
255
255
255
0
0
0
100
255
100
255
50
255
100
0
0
255
255
255
0
0
0
100
255
100
255
50
255
100
0
0
255
255
255
0
0
0
100
255
100
255
50
255
100
0
0
255
255
255
0
0
0
100
255
100
255
50
255
100
0
0
255
255
255
0
0
0
100
255
100
255
50
255
100
0
0
255
255
255
0
0
0
100
255
100
255
50
255
100
0
0
255
255
255
0
0
0
100
255
100
255
50
255
100
0
0
255
255
255
0
0
0
100
255
100
255
50
255
100
0
0
255
255
255
0
0
0
100
255
100
255
50
255
100
0
0
255
255
255
0
0
0
100
255
100
255
50
255
100
0
0
255
255
255
0
0
0
100
255
100
255
50
255
100
0
0
255
255
255
0
0
0
100
255
100
255
50
255
100
0
0
255
255
255
0
0
0
100
255
100
255
50
255
100
0
0
255
255
255
0
0
0
100
255
100
255
50
255
100
0
0
255
255
255
0
0
0
100
255
100
255
50
255
100
0
0
255
255
255
0
0
0
100
255
100
255
50
255
100
0
0
255
255
255
0
0
0
100
255
100
255
50
255
100
0
0
255
255
255
0
0
0
100
255
100
255
50
255
100
0
0
255
255
255
0
0
0
100
255
100
255
50
255
100
0
0
255
255
255
0
0
0
100
255
100
255
50
255
100
0
0
255
255
255
0
0
0
100
255
100
255
50
255
100
0
0
255
255
255
0
0
0
100
255
100
255
50
255
100
0
0
255
255
255
0
0
0
100
255
100
255
50
255
100
0
0
255
255
255
0
0
0
100
255
100
255
50
255
100
0
0
255
255
255
0
0
0
100
255
100
255
50
255
100
0
0
255
255
255
0
0
0
100
255
100
255
50
255
100
0
0
255
255
255
0
0
0
100
255
100
255
50
255
100
0
0
255
255
255
0
0
0
100
255
100
255
50
255
100
0
0
255
255
255
0
0
0
100
255
100
255
50
255
100
0
0
255
255
255
0
0
0
100
255
100
255
50
255
100
0
0
255
255
255
0
0
0
100
255
100
255
50
255
100
0
0
255
255
255
0
0
0
100
255
100
255
50
255
100
0
0
255
255
255
0
0
0
100
255
100
255
50
255
100
0
0
255
255
255
0
0
0
100
255
100
255
50
255
100
0
0
255
255
255
0
0
0
100
255
100
255
50
255
100
0
0
255
255
255
0
0
0
100
255
100
255
50
255
100
0
0
255
255
255
0
0
0
100
255
100
255
50
255
100
0
0
255
255
255
0
0
0
100
255
100
255
50
255
100
0
0
255
255
255
0
0
0
100
255
100
255
50
255
100
0
0
255
255
255
0
0
0
100
255
100
255
50
255
100
0
0
255
255
255
0
0
0
100
255
100
255
50
255
100
0
0
255
255
255
0
0
0
100
255
100
255
50
255
100
0
0
255
255
255
0
0
0
100
255
100
255
50
255
100
0
0
255
255
255
0
0
0
100
255
100
255
50
255
100
0
0
255
255
255
0
0
0
100
255
100
255
50
255
100
0
0
255
255
255
0
0
0
100
255
100
255
50
255
100
0
0
255
255
255
0
0
0
100
255
100
255
50
255
100
0
0
255
255
255
0
0
0
100
255
100
255
50
255
100
0
0
255
255
255
0
0
0
100
255
100
255
50
255
100
0
0
255
255
255
0
0
0
100
255
100
255
50
255
100
0
0
255
255
255
0
0
0
100
255
100
255
50
255
100
0
0
255
255
255
0
0
0
100
255
100
255
50
255
100
0
0
255
255
255
0
0
0
100
255
100
255
50
255
100
0
0
255
255
255
0
0
0
100
255
100
255
50
255
100
0
0
255
255
255
0
0
0
100
255
100
255
50
255
100
0
0
255
255
255
0
0
0
100
255
100
255
50
255
100
0
0
255
255
255
0
0
0
100
255
100
255
50
255
100
0
0
255
255
255
0
0
0
100
255
100
255
50
255
100
0
0
255
255
255
0
0
0
100
255
100
255
50
255
100
0
0
255
255
255
0
0
0
100
255
100
255
50
255
100
0
0
255
255
255
0
0
0
100
255
100
255
50
255
100
0
0
255
255
255
0
0
0
100
255
100
255
50
255
100
0
0
255
255
255
0
0
0
100
255
100
255
50
255
100
0
0
255
255
255
0
0
0
100
255
100
255
50
255
100
0
0
255
255
255
0
0
0
100
255
100
255
50
255
100
0
0
255
255
255
0
0
0
100
255
100
255
50
255
100
0
0
255
255
255
0
0
0
100
255
100
255
50
255
100
0
0
255
255
255
0
0
0
100
255
100
255
50
255
100
0
0
255
255
255
0
0
0
100
255
100
255
50
255
100
0
0
255
255
255
0
0
0
100
255
100
255
50
255
100
0
0
255
255
255
0
0
0
100
255
100
255
50
255
100
0
0
255
255
255
0
0
0
100
255
100
255
50
255
100
0
0
255
255
255
0
0
0
100
255
100
255
50
255
100
0
0
255
255
255
0
0
0
100
255
100
255
50
255
100
0
0
255
255
255
0
0
0
100
255
100
255
50
255
100
0
0
255
255
255
0
0
0
100
255
100
255
50
255
100
0
0
255
255
255
0
0
0
100
255
100
255
50
255
100
0
0
255
255
255
0
0
0
100
255
100
255
50
255
100
0
0
255
255
255
0
0
0
100
255
100
255
50
255
100
0
0
255
255
255
0
0
0
100
255
100
255
50
255
100
0
0
255
255
255
0
0
0
100
255
100
255
50
255
100
0
0
255
255
255
0
0
0
100
255
100
255
50
255
100
0
0
255
255
255
0
0
0
100
255
100
255
50
255
100
0
0
255
255
255
0
0
0
100
255
100
255
50
255
100
0
0
255
255
255
0
0
0
100
255
100
255
50
255
100
0
0
255
255
255
0
0
0
100
255
100
255
50
255
100
0
0
255
255
255
0
0
0
100
255
100
255
50
255
100
0
0
255
255
255
0
0
0
100
255
100
255
50
255
100
0
0
255
255
255
0
0
0
100
255
100
255
50
255
100
0
0
255
255
255
0
0
0
100
255
100
255
50
255
100
0
0
255
255
255
0
0
0
100
255
100
255
50
255
100
0
0
255
255
255
0
0
0
100
255
100
255
50
255
100
0
0
255
255
255
0
0
0
100
255
100
255
50
255
100
0
0
255
255
255
0
0
0
100
255
100
255
50
255
100
0
0
255
255
255
0
0
0
100
255
100
255
50
255
100
0
0
255
255
255
0
0
0
100
255
100
255
50
255
100
0
0
255
255
255
0
0
0
100
255
100
255
50
255
100
0
0
255
255
255
0
0
0
100
255
100
255
50
255
100
0
0
255
255
255
0
0
0
100
255
100
255
50
255
100
0
0
255
255
255
0
0
0
100
255
100
255
50
255
100
0
0
255
255
255
0
0
0
100
255
100
255
50
255
100
0
0
255
255
255
0
0
0
100
255
100
255
50
255
100
0
0
255
255
255
0
0
0
100
255
100
255
50
255
100
0
0
255
255
255
0
0
0
100
255
100
255
50
255
100
0
0
255
255
255
0
0
0
100
255
100
255
50
255
100
0
0
255
255
255
0
0
0
100
255
100
255
50
255
100
0
0
255
255
255
0
0
0
100
255
100
255
50
255
100
0
0
255
255
255
0
0
0
100
255
100
255
50
255
100
0
0
255
255
255
0
0
0
100
255
100
255
50
255
100
0
0
255
255
255
0
0
0
100
255
100
255
50
255
100
0
0
255
255
255
0
0
0
100
255
100
255
50
255
100
0
0
255
255
255
0
0
0
100
255
100
255
50
255
100
0
0
255
255
255
0
0
0
100
255
100
255
50
255
100
0
0
255
255
255
0
0
0
100
255
100
255
50
255
100
0
0
255
255
255
0
0
0
100
255
100
255
50
255
100
0
0
255
255
255
0
0
0
100
255
100
255
50
255
100
0
0
255
255
255
0
0
0
100
255
100
255
50
255
100
0
0
255
255
255
0
0
0
100
255
100
255
50
255
100
0
0
255
255
255
0
0
0
100
255
100
255
50
255
100
0
0
255
255
255
0
0
0
100
255
100
255
50
255
100
0
0
255
255
255
0
0
0
100
255
100
255
50
255
100
0
0
255
255
255
0
0
0
100
255
100
255
50
255
100
0
0
255
255
255
0
0
0
100
255
100
255
50
255
100
0
0
255
255
255
0
0
0
100
255
100
255
50
255
100
0
0
255
255
255
0
0
0
100
255
100
255
50
255
100
0
0
255
255
255
0
0
0
100
255
100
255
50
255
100
0
0
255
255
255
0
0
0
100
255
100
255
50
255
100
0
0
255
255
255
0
0
0
100
255
100
255
50
255
100
0
0
255
255
255
0
0
0
100
255
100
255
50
255
100
0
0
255
255
255
0
0
0
100
255
100
255
50
255
100
0
0
255
255
255
0
0
0
100
255
100
255
50
255
100
0
0
255
255
255
0
0
0
100
255
100
255
50
255
100
0
0
255
255
255
0
0
0
100
255
100
255
50
255
100
0
0
255
255
255
0
0
0
100
255
100
255
50
255
100
0
0
255
255
255
0
0
0
100
255
100
255
50
255
100
0
0
255
255
255
0
0
0
100
255
100
255
50
255
100
0
0
255
255
255
0
0
0
100
255
100
255
50
255
100
0
0
255
255
255
0
0
0
100
255
100
255
50
255
100
0
0
255
255
255
0
0
0
100
255
100
255
50
255
100
0
0
255
255
255
0
0
0
100
255
100
255
50
255
100
0
0
255
255
255
0
0
0
100
255
100
255
50
255
100
0
0
255
255
255
0
0
0
100
255
100
255
50
255
100
0
0
255
255
255
0
0
0
100
255
100
255
50
255
100
0
0
255
255
255
0
0
0
100
255
100
255
50
255
100
0
0
255
255
255
0
0
0
100
255
100
255
50
255
100
0
0
255
255
255
0
0
0
100
255
100
255
50
255
100
0
0
255
255
255
0
0
0
100
255
100
255
50
255
100
0
0
255
255
255
0
0
0
100
255
100
255
50
255
100
0
0
255
255
255
0
0
0
100
255
100
255
50
255
100
0
0
255
255
255
0
0
0
100
255
100
255
50
255
100
0
0
255
255
255
0
0
0
100
255
100
255
50
255
100
0
0
255
255
255
0
0
0
100
255
100
255
50
255
100
0
0
255
255
255
0
0
0
100
255
100
255
50
255
100
0
0
255
255
255
0
0
0
100
255
100
255
50
255
100
0
0
255
255
255
0
0
0
100
255
100
255
50
255
100
0
0
255
255
255
0
0
0
100
255
100
255
50
255
100
0
0
255
255
255
0
0
0
100
255
100
255
50
255
100
0
0
255
255
255
0
0
0
100
255
100
255
50
255
100
0
0
255
255
255
0
0
0
100
255
100
255
50
255
100
0
0
255
255
255
0
0
0
100
255
100
255
50
255
100
0
0
255
255
255
0
0
0
100
255
100
255
50
255
100
0
0
255
255
255
0
0
0
100
255
100
255
50
255
100
0
0
255
255
255
0
0
0
100
255
100
255
50
255
100
0
0
255
255
255
0
0
0
100
255
100
255
50
255
100
0
0
255
255
255
0
0
0
100
255
100
255
50
255
100
0
0
255
255
255
0
0
0
100
255
100
255
50
255
100
0
0
255
255
255
0
0
0
100
255
100
255
50
255
100
0
0
255
255
255
0
0
0
100
255
100
255
50
255
100
0
0
255
255
255
0
0
0
100
255
100
255
50
255
100
0
0
255
255
255
0
0
0
100
255
100
255
50
255
100
0
0
255
255
255
0
0
0
100
255
100
255
50
255
100
0
0
255
255
255
0
0
0
100
255
100
255
50
255
100
0
0
255
255
255
0
0
0
100
255
100
255
50
255
100
0
0
255
255
255
0
0
0
100
255
100
255
50
255
100
0
0
255
255
255
0
0
0
100
255
100
255
50
255
100
0
0
255
255
255
0
0
0
100
255
100
255
50
255
100
0
0
255
255
255
0
0
0
100
255
100
255
50
255
100
0
0
255
255
255
0
0
0
100
255
100
255
50
255
100
0
0
255
255
255
0
0
0
100
255
100
255
50
255
100
0
0
255
255
255
0
0
0
100
255
100
255
50
255
100
0
0
255
255
255
0
0
0
100
255
100
255
50
255
100
0
0
255
255
255
0
0
0
100
255
100
255
50
255
100
0
0
255
255
255
0
0
0
100
255
100
255
50
255
100
0
0
255
255
255
0
0
0
100
255
100
255
50
255
100
0
0
255
255
255
0
0
0
100
255
100
255
50
255
100
0
0
255
255
255
0
0
0
100
255
100
255
50
255
100
0
0
255
255
255
0
0
0
100
255
100
255
50
255
100
0
0
255
255
255
0
0
0
100
255
100
255
50
255
100
0
0
255
255
255
0
0
0
100
255
100
255
50
255
100
0
0
255
255
255
0
0
0
100
255
100
255
50
255
100
0
0
255
255
255
0
0
0
100
255
100
255
50
255
100
0
0
255
255
255
0
0
0
100
255
100
255
50
255
100
0
0
255
255
255
0
0
0
100
255
100
255
50
255
100
0
0
255
255
255
0
0
0
100
255
100
255
50
255
100
0
0
255
255
255
0
0
0
100
255
100
255
50
255
100
0
0
255
255
255
0
0
0
100
255
100
255
50
255
100
0
0
255
255
255
0
0
0
100
255
100
255
50
255
100
0
0
255
255
255
0
0
0
100
255
100
255
50
255
100
0
0
255
255
255
0
0
0
100
255
100
255
50
255
100
0
0
255
255
255
0
0
0
100
255
100
255
50
255
100
0
0
255
255
255
0
0
0
100
255
100
255
50
255
100
0
0
255
255
255
0
0
0
100
255
100
255
50
255
100
0
0
255
255
255
0
0
0
100
255
100
255
50
255
100
0
0
255
255
255
0
0
0
100
255
100
255
50
255
100
0
0
255
255
255
0
0
0
100
255
100
255
50
255
100
0
0
255
255
255
0
0
0
100
255
100
255
50
255
100
0
0
255
255
255
0
0
0
100
255
100
255
50
255
100
0
0
255
255
255
0
0
0
100
255
100
255
50
255
100
0
0
255
255
255
0
0
0
100
255
100
255
50
255
100
0
0
255
255
255
0
0
0
100
255
100
255
50
255
100
0
0
255
255
255
0
0
0
100
255
100
255
50
255
100
0
0
255
255
255
0
0
0
100
255
100
255
50
255
100
0
0
255
255
255
0
0
0
100
255
100
255
50
255
100
0
0
255
255
255
0
0
0
100
255
100
255
50
255
100
0
0
255
255
255
0
0
0
100
255
100
255
50
255
100
0
0
255
255
255
0
0
0
100
255
100
255
50
255
100
0
0
255
255
255
0
0
0
100
255
100
255
50
255
100
0
0
255
255
255
0
0
0
100
255
100
255
50
255
100
0
0
255
255
255
0
0
0
100
255
100
255
50
255
100
0
0
255
255
255
0
0
0
100
255
100
255
50
255
100
0
0
255
255
255
0
0
0
100
255
100
255
50
255
100
0
0
255
255
255
0
0
0
100
255
100
255
50
255
100
0
0
255
255
255
0
0
0
100
255
100
255
50
255
100
0
0
255
255
255
0
0
0
100
255
100
255
50
255
100
0
0
255
255
255
0
0
0
100
255
100
255
50
255
100
0
0
255
255
255
0
0
0
100
255
100
255
50
255
100
0
0
255
255
255
0
0
0
100
255
100
255
50
255
100
0
0
255
255
255
0
0
0
100
255
100
255
50
255
100
0
0
255
255
255
0
0
0
100
255
100
255
50
255
100
0
0
255
255
255
0
0
0
100
255
100
255
50
255
100
0
0
255
255
255
0
0
0
100
255
100
255
50
255
100
0
0
255
255
255
0
0
0
100
255
100
255
50
255
100
0
0
255
255
255
0
0
0
100
255
100
255
50
255
100
0
0
255
255
255
0
0
0
100
255
100
255
50
255
100
0
0
255
255
255
0
0
0
100
255
100
255
50
255
100
0
0
255
255
255
0
0
0
100
255
100
255
50
255
100
0
0
255
255
255
0
0
0
100
255
100
255
50
255
100
0
0
255
255
255
0
0
0
100
255
100
255
50
255
100
0
0
255
255
255
0
0
0
100
255
100
255
50
255
100
0
0
255
255
255
0
0
0
100
255
100
255
50
255
100
0
0
255
255
255
0
0
0
100
255
100
255
50
255
100
0
0
255
255
255
0
0
0
100
255
100
255
50
255
100
0
0
255
255
255
0
0
0
100
255
100
255
50
255
100
0
0
255
255
255
0
0
0
100
255
100
255
50
255
100
0
0
255
255
255
0
0
0
100
255
100
255
50
255
100
0
0
255
255
255
0
0
0
100
255
100
255
50
255
100
0
0
255
255
255
0
0
0
100
255
100
255
50
255
100
0
0
255
255
255
0
0
0
100
255
100
255
50
255
100
0
0
255
255
255
0
0
0
100
255
100
255
50
255
100
0
0
255
255
255
0
0
0
100
255
100
255
50
255
100
0
0
255
255
255
0
0
0
100
255
100
255
50
255
100
0
0
255
255
255
0
0
0
100
255
100
255
50
255
100
0
0
255
255
255
0
0
0
100
255
100
255
50
255
100
0
0
255
255
255
0
0
0
100
255
100
255
50
255
100
0
0
255
255
255
0
0
0
100
255
100
255
50
255
100
0
0
255
255
255
0
0
0
100
255
100
255
50
255
100
0
0
255
255
255
0
0
0
100
255
100
255
50
255
100
0
0
255
255
255
0
0
0
100
255
100
255
50
255
100
0
0
255
255
255
0
0
0
100
255
100
255
50
255
100
0
0
255
255
255
0
0
0
100
255
100
255
50
255
100
0
0
255
255
255
0
0
0
100
255
100
255
50
255
100
0
0
255
255
255
0
0
0
100
255
100
255
50
255
100
0
0
255
255
255
0
0
0
100
255
100
255
50
255
100
0
0
255
255
255
0
0
0
100
255
100
255
50
255
100
0
0
255
255
255
0
0
0
100
255
100
255
50
255
100
0
0
255
255
255
0
0
0
100
255
100
255
50
255
100
0
0
255
255
255
0
0
0
100
255
100
255
50
255
100
0
0
255
255
255
0
0
0
100
255
100
255
50
255
100
0
0
255
255
255
0
0
0
100
255
100
255
50
255
100
0
0
255
255
255
0
0
0
100
255
100
255
50
255
100
0
0
255
255
255
0
0
0
100
255
100
255
50
255
100
0
0
255
255
255
0
0
0
100
255
100
255
50
255
100
0
0
255
255
255
0
0
0
100
255
100
255
50
255
100
0
0
255
255
255
0
0
0
100
255
100
255
50
255
100
0
0
255
255
255
0
0
0
100
255
100
255
50
255
100
0
0
255
255
255
0
0
0
100
255
100
255
50
255
100
0
0
255
255
255
0
0
0
100
255
100
255
50
255
100
0
0
255
255
255
0
0
0
100
255
100
255
50
255
100
0
0
255
255
255
0
0
0
100
255
100
255
50
255
100
0
0
255
255
255
0
0
0
100
255
100
255
50
255
100
0
0
255
255
255
0
0
0
100
255
100
255
50
255
100
0
0
255
255
255
0
0
0
100
255
100
255
50
255
100
0
0
255
255
255
0
0
0
100
255
100
255
50
255
100
0
0
255
255
255
0
0
0
100
255
100
255
50
255
100
0
0
255
255
255
0
0
0
100
255
100
255
50
255
100
0
0
255
255
255
0
0
0
100
255
100
255
50
255
100
0
0
255
255
255
0
0
0
100
255
100
255
50
255
100
0
0
255
255
255
0
0
0
100
255
100
255
50
255
100
0
0
255
255
255
0
0
0
100
255
100
255
50
255
100
0
0
255
255
255
0
0
0
100
255
100
255
50
255
100
0
0
255
255
255
0
0
0
100
255
100
255
50
255
100
0
0
255
255
255
0
0
0
100
255
100
255
50
255
100
0
0
255
255
255
0
0
0
100
255
100
255
50
255
100
0
0
255
255
255
0
0
0
100
255
100
255
50
255
100
0
0
255
255
255
0
0
0
100
255
100
255
50
255
100
0
0
255
255
255
0
0
0
100
255
100
255
50
255
100
0
0
255
255
255
0
0
0
100
255
100
255
50
255
100
0
0
255
255
255
0
0
0
100
255
100
255
50
255
100
0
0
255
255
255
0
0
0
100
255
100
255
50
255
100
0
0
255
255
255
0
0
0
100
255
100
255
50
255
100
0
0
255
255
255
0
0
0
100
255
100
255
50
255
100
0
0
255
255
255
0
0
0
100
255
100
255
50
255
100
0
0
255
255
255
0
0
0
100
255
100
255
50
255
100
0
0
255
255
255
0
0
0
100
255
100
255
50
255
100
0
0
255
255
255
0
0
0
100
255
100
255
50
255
100
0
0
255
255
255
0
0
0
100
255
100
255
50
255
100
0
0
255
255
255
0
0
0
100
255
100
255
50
255
100
0
0
255
255
255
0
0
0
100
255
100
255
50
255
100
0
0
255
255
255
0
0
0
100
255
100
255
50
255
100
0
0
255
255
255
0
0
0
100
255
100
255
50
255
100
0
0
255
255
255
0
0
0
100
255
100
255
50
255
100
0
0
255
255
255
0
0
0
100
255
100
255
50
255
100
0
0
255
255
255
0
0
0
100
255
100
255
50
255
100
0
0
255
255
255
0
0
0
100
255
100
255
50
255
100
0
0
255
255
255
0
0
0
100
255
100
255
50
255
100
0
0
255
255
255
0
0
0
100
255
100
255
50
255
100
0
0
255
255
255
0
0
0
100
255
100
255
50
255
100
0
0
255
255
255
0
0
0
100
255
100
255
50
255
100
0
0
255
255
255
0
0
0
100
255
100
255
50
255
100
0
0
255
255
255
0
0
0
100
255
100
255
50
255
100
0
0
255
255
255
0
0
0
100
255
100
255
50
255
100
0
0
255
255
255
0
0
0
100
255
100
255
50
255
100
0
0
255
255
255
0
0
0
100
255
100
255
50
255
100
0
0
255
255
255
0
0
0
100
255
100
255
50
255
100
0
0
255
255
255
0
0
0
100
255
100
255
50
255
100
0
0
255
255
255
0
0
0
100
255
100
255
50
255
100
0
0
255
255
255
0
0
0
100
255
100
255
50
255
100
0
0
255
255
255
0
0
0
100
255
100
255
50
255
100
0
0
255
255
255
0
0
0
100
255
100
255
50
255
100
0
0
255
255
255
0
0
0
100
255
100
255
50
255
100
0
0
255
255
255
0
0
0
100
255
100
255
50
255
100
0
0
255
255
255
0
0
0
100
255
100
255
50
255
100
0
0
255
255
255
0
0
0
100
255
100
255
50
255
100
0
0
255
255
255
0
0
0
100
255
100
255
50
255
100
0
0
255
255
255
0
0
0
100
255
100
255
50
255
100
0
0
255
255
255
0
0
0
100
255
100
255
50
255
100
0
0
255
255
255
0
0
0
100
255
100
255
50
255
100
0
0
255
255
255
0
0
0
100
255
100
255
50
255
100
0
0
255
255
255
0
0
0
100
255
100
255
50
255
100
0
0
255
255
255
0
0
0
100
255
100
255
50
255
100
0
0
255
255
255
0
0
0
100
255
100
255
50
255
100
0
0
255
255
255
0
0
0
100
255
100
255
50
255
100
0
0
255
255
255
0
0
0
100
255
100
255
50
255
100
0
0
255
255
255
0
0
0
100
255
100
255
50
255
100
0
0
255
255
255
0
0
0
100
255
100
255
50
255
100
0
0
255
255
255
0
0
0
100
255
100
255
50
255
100
0
0
255
255
255
0
0
0
100
255
100
255
50
255
100
0
0
255
255
255
0
0
0
100
255
100
255
50
255
100
0
0
255
255
255
0
0
0
100
255
100
255
50
255
100
0
0
255
255
255
0
0
0
100
255
100
255
50
255
100
0
0
255
255
255
0
0
0
100
255
100
255
50
255
100
0
0
255
255
255
0
0
0
100
255
100
255
50
255
100
0
0
255
255
255
0
0
0
100
255
100
255
50
255
100
0
0
255
255
255
0
0
0
100
255
100
255
50
255
100
0
0
255
255
255
0
0
0
100
255
100
255
50
255
100
0
0
255
255
255
0
0
0
100
255
100
255
50
255
100
0
0
255
255
255
0
0
0
100
255
100
255
50
255
100
0
0
255
255
255
0
0
0
100
255
100
255
50
255
100
0
0
255
255
255
0
0
0
100
255
100
255
50
255
100
0
0
255
255
255
0
0
0
100
255
100
255
50
255
100
0
0
255
255
255
0
0
0
100
255
100
255
50
255
100
0
0
255
255
255
0
0
0
100
255
100
255
50
255
100
0
0
255
255
255
0
0
0
100
255
100
255
50
255
100
0
0
255
255
255
0
0
0
100
255
100
255
50
255
100
0
0
255
255
255
0
0
0
100
255
100
255
50
255
100
0
0
255
255
255
0
0
0
100
255
100
255
50
255
100
0
0
255
255
255
0
0
0
100
255
100
255
50
255
100
0
0
255
255
255
0
0
0
100
255
100
255
50
255
100
0
0
255
255
255
0
0
0
100
255
100
255
50
255
100
0
0
255
255
255
0
0
0
100
255
100
255
50
255
100
0
0
255
255
255
0
0
0
100
255
100
255
50
255
100
0
0
255
255
255
0
0
0
100
255
100
255
50
255
100
0
0
255
255
255
0
0
0
100
255
100
255
50
255
100
0
0
255
255
255
0
0
0
100
255
100
255
50
255
100
0
0
255
255
255
0
0
0
100
255
100
255
50
255
100
0
0
255
255
255
0
0
0
100
255
100
255
50
255
100
0
0
255
255
255
0
0
0
100
255
100
255
50
255
100
0
0
255
255
255
0
0
0
100
255
100
255
50
255
100
0
0
255
255
255
0
0
0
100
255
100
255
50
255
100
0
0
255
255
255
0
0
0
100
255
100
255
50
255
100
0
0
255
255
255
0
0
0
100
255
100
255
50
255
100
0
0
255
255
255
0
0
0
100
255
100
255
50
255
100
0
0
255
255
255
0
0
0
100
255
100
255
50
255
100
0
0
255
255
255
0
0
0
100
255
100
255
50
255
100
0
0
255
255
255
0
0
0
100
255
100
255
50
255
100
0
0
255
255
255
0
0
0
100
255
100
255
50
255
100
0
0
255
255
255
0
0
0
100
255
100
255
50
255
100
0
0
255
255
255
0
0
0
100
255
100
255
50
255
100
0
0
255
255
255
0
0
0
100
255
100
255
50
255
100
0
0
255
255
255
0
0
0
100
255
100
255
50
255
100
0
0
255
255
255
0
0
0
100
255
100
255
50
255
100
0
0
255
255
255
0
0
0
100
255
100
255
50
255
100
0
0
255
255
255
0
0
0
100
255
100
255
50
255
100
0
0
255
255
255
0
0
0
100
255
100
255
50
255
100
0
0
255
255
255
0
0
0
100
255
100
255
50
255
100
0
0
255
255
255
0
0
0
100
255
100
255
50
255
100
0
0
255
255
255
0
0
0
100
255
100
255
50
255
100
0
0
255
255
255
0
0
0
100
255
100
255
50
255
100
0
0
255
255
255
0
0
0
100
255
100
255
50
255
100
0
0
255
255
255
0
0
0
100
255
100
255
50
255
100
0
0
255
255
255
0
0
0
100
255
100
255
50
255
100
0
0
255
255
255
0
0
0
100
255
100
255
50
255
100
0
0
255
255
255
0
0
0
100
255
100
255
50
255
100
0
0
255
255
255
0
0
0
100
255
100
255
50
255
100
0
0
255
255
255
0
0
0
100
255
100
255
50
255
100
0
0
255
255
255
0
0
0
100
255
100
255
50
255
100
0
0
255
255
255
0
0
0
100
255
100
255
50
255
100
0
0
255
255
255
0
0
0
100
255
100
255
50
255
100
0
0
255
255
255
0
0
0
100
255
100
255
50
255
100
0
0
255
255
255
0
0
0
100
255
100
255
50
255
100
0
0
255
255
255
0
0
0
100
255
100
255
50
255
100
0
0
255
255
255
0
0
0
100
255
100
255
50
255
100
0
0
255
255
255
0
0
0
100
255
100
255
50
255
100
0
0
255
255
255
0
0
0
100
255
100
255
50
255
100
0
0
255
255
255
0
0
0
100
255
100
255
50
255
100
0
0
255
255
255
0
0
0
100
255
100
255
50
255
100
0
0
255
255
255
0
0
0
100
255
100
255
50
255
100
0
0
255
255
255
0
0
0
100
255
100
255
50
255
100
0
0
255
255
255
0
0
0
100
255
100
255
50
255
100
0
0
255
255
255
0
0
0
100
255
100
255
50
255
100
0
0
255
255
255
0
0
0
100
255
100
255
50
255
100
0
0
255
255
255
0
0
0
100
255
100
255
50
255
100
0
0
255
255
255
0
0
0
100
255
100
255
50
255
100
0
0
255
255
255
0
0
0
100
255
100
255
50
255
100
0
0
255
255
255
0
0
0
100
255
100
255
50
255
100
0
0
255
255
255
0
0
0
100
255
100
255
50
255
100
0
0
255
255
255
0
0
0
100
255
100
255
50
255
100
0
0
255
255
255
0
0
0
100
255
100
255
50
255
100
0
0
255
255
