P3 20 20 255
100
100
100
100
100
100
150
150
150
150
150
150
100
100
100
100
100
100
150
150
150
150
150
150
100
100
100
100
100
100
150
150
150
150
150
150
100
100
100
100
100
100
150
150
150
150
150
150
100
100
100
100
100
100
150
150
150
150
150
150
100
100
100
100
100
100
150
150
150
150
150
150
100
100
100
100
100
100
150
150
150
150
150
150
100
100
100
100
100
100
150
150
150
150
150
150
100
100
100
100
100
100
150
150
150
150
150
150
100
100
100
100
100
100
150
150
150
150
150
150
100
100
100
100
100
100
150
150
150
150
150
150
100
100
100
100
100
100
150
150
150
150
150
150
100
100
100
100
100
100
150
150
150
150
150
150
100
100
100
100
100
100
150
150
150
150
150
150
100
100
100
100
100
100
150
150
150
150
150
150
100
100
100
100
100
100
150
150
150
150
150
150
100
100
100
100
100
100
150
150
150
150
150
150
100
100
100
100
100
100
150
150
150
150
150
150
100
100
100
100
100
100
150
150
150
150
150
150
100
100
100
100
100
100
150
150
150
150
150
150
100
100
100
100
100
100
150
150
150
150
150
150
100
100
100
100
100
100
150
150
150
150
150
150
100
100
100
100
100
100
150
150
150
150
150
150
100
100
100
100
100
100
150
150
150
150
150
150
100
100
100
100
100
100
150
150
150
150
150
150
100
100
100
100
100
100
150
150
150
150
150
150
100
100
100
100
100
100
150
150
150
150
150
150
100
100
100
100
100
100
150
150
150
150
150
150
100
100
100
100
100
100
150
150
150
150
150
150
100
100
100
100
100
100
150
150
150
150
150
150
100
100
100
100
100
100
150
150
150
150
150
150
100
100
100
100
100
100
150
150
150
150
150
150
100
100
100
100
100
100
150
150
150
150
150
150
100
100
100
100
100
100
150
150
150
150
150
150
100
100
100
100
100
100
150
150
150
150
150
150
100
100
100
100
100
100
150
150
150
150
150
150
100
100
100
100
100
100
150
150
150
150
150
150
100
100
100
100
100
100
150
150
150
150
150
150
100
100
100
100
100
100
150
150
150
150
150
150
100
100
100
100
100
100
150
150
150
150
150
150
100
100
100
100
100
100
150
150
150
150
150
150
100
100
100
100
100
100
150
150
150
150
150
150
100
100
100
100
100
100
150
150
150
150
150
150
100
100
100
100
100
100
150
150
150
150
150
150
100
100
100
100
100
100
150
150
150
150
150
150
100
100
100
100
100
100
150
150
150
150
150
150
100
100
100
100
100
100
150
150
150
150
150
150
100
100
100
100
100
100
150
150
150
150
150
150
100
100
100
100
100
100
150
150
150
150
150
150
100
100
100
100
100
100
150
150
150
150
150
150
100
100
100
100
100
100
150
150
150
150
150
150
100
100
100
100
100
100
150
150
150
150
150
150
100
100
100
100
100
100
150
150
150
150
150
150
100
100
100
100
100
100
150
150
150
150
150
150
100
100
100
100
100
100
150
150
150
150
150
150
100
100
100
100
100
100
150
150
150
150
150
150
100
100
100
100
100
100
150
150
150
150
150
150
100
100
100
100
100
100
150
150
150
150
150
150
100
100
100
100
100
100
150
150
150
150
150
150
100
100
100
100
100
100
150
150
150
150
150
150
100
100
100
100
100
100
150
150
150
150
150
150
100
100
100
100
100
100
150
150
150
150
150
150
100
100
100
100
100
100
150
150
150
150
150
150
100
100
100
100
100
100
150
150
150
150
150
150
100
100
100
100
100
100
150
150
150
150
150
150
100
100
100
100
100
100
150
150
150
150
150
150
100
100
100
100
100
100
150
150
150
150
150
150
100
100
100
100
100
100
150
150
150
150
150
150
100
100
100
100
100
100
150
150
150
150
150
150
100
100
100
100
100
100
150
150
150
150
150
150
100
100
100
100
100
100
150
150
150
150
150
150
100
100
100
100
100
100
150
150
150
150
150
150
100
100
100
100
100
100
150
150
150
150
150
150
100
100
100
100
100
100
150
150
150
150
150
150
100
100
100
100
100
100
150
150
150
150
150
150
100
100
100
100
100
100
150
150
150
150
150
150
100
100
100
100
100
100
150
150
150
150
150
150
100
100
100
100
100
100
150
150
150
150
150
150
100
100
100
100
100
100
150
150
150
150
150
150
100
100
100
100
100
100
150
150
150
150
150
150
100
100
100
100
100
100
150
150
150
150
150
150
100
100
100
100
100
100
150
150
150
150
150
150
100
100
100
100
100
100
150
150
150
150
150
150
100
100
100
100
100
100
150
150
150
150
150
150
100
100
100
100
100
100
150
150
150
150
150
150
100
100
100
100
100
100
150
150
150
150
150
150
100
100
100
100
100
100
150
150
150
150
150
150
100
100
100
100
100
100
150
150
150
150
150
150
100
100
100
100
100
100
150
150
150
150
150
150
100
100
100
100
100
100
150
150
150
150
150
150
100
100
100
100
100
100
150
150
150
150
150
150
100
100
100
100
100
100
150
150
150
150
150
150
100
100
100
100
100
100
150
150
150
150
150
150
100
100
100
100
100
100
150
150
150
150
150
150
100
100
100
100
100
100
150
150
150
150
150
150
100
100
100
100
100
100
150
150
150
150
150
150
100
100
100
100
100
100
150
150
150
150
150
150
100
100
100
100
100
100
150
150
150
150
150
150
100
100
100
100
100
100
150
150
150
150
150
150
100
100
100
100
100
100
150
150
150
150
150
150
