P3 50 50 255
204
20
101
204
20
101
153
61
102
153
61
102
194
0
255
194
0
255
255
255
64
255
255
64
204
185
20
204
185
20
204
20
101
204
20
101
153
61
102
153
61
102
194
0
255
194
0
255
255
255
64
255
255
64
204
185
20
204
185
20
204
20
101
204
20
101
153
61
102
153
61
102
194
0
255
194
0
255
255
255
64
255
255
64
204
185
20
204
185
20
204
20
101
204
20
101
153
61
102
153
61
102
194
0
255
194
0
255
255
255
64
255
255
64
204
185
20
204
185
20
204
20
101
204
20
101
153
61
102
153
61
102
194
0
255
194
0
255
255
255
64
255
255
64
204
185
20
204
185
20
204
20
101
204
20
101
153
61
102
153
61
102
194
0
255
194
0
255
255
255
64
255
255
64
204
185
20
204
185
20
204
20
101
204
20
101
153
61
102
153
61
102
194
0
255
194
0
255
255
255
64
255
255
64
204
185
20
204
185
20
204
20
101
204
20
101
153
61
102
153
61
102
194
0
255
194
0
255
255
255
64
255
255
64
204
185
20
204
185
20
204
20
101
204
20
101
153
61
102
153
61
102
194
0
255
194
0
255
255
255
64
255
255
64
204
185
20
204
185
20
204
20
101
204
20
101
153
61
102
153
61
102
194
0
255
194
0
255
255
255
64
255
255
64
204
185
20
204
185
20
204
20
101
204
20
101
153
61
102
153
61
102
194
0
255
194
0
255
255
255
64
255
255
64
204
185
20
204
185
20
204
20
101
204
20
101
153
61
102
153
61
102
194
0
255
194
0
255
255
255
64
255
255
64
204
185
20
204
185
20
204
20
101
204
20
101
153
61
102
153
61
102
194
0
255
194
0
255
255
255
64
255
255
64
204
185
20
204
185
20
204
20
101
204
20
101
153
61
102
153
61
102
194
0
255
194
0
255
255
255
64
255
255
64
204
185
20
204
185
20
204
20
101
204
20
101
153
61
102
153
61
102
194
0
255
194
0
255
255
255
64
255
255
64
204
185
20
204
185
20
204
20
101
204
20
101
153
61
102
153
61
102
194
0
255
194
0
255
255
255
64
255
255
64
204
185
20
204
185
20
204
20
101
204
20
101
153
61
102
153
61
102
194
0
255
194
0
255
255
255
64
255
255
64
204
185
20
204
185
20
204
20
101
204
20
101
153
61
102
153
61
102
194
0
255
194
0
255
255
255
64
255
255
64
204
185
20
204
185
20
204
20
101
204
20
101
153
61
102
153
61
102
194
0
255
194
0
255
255
255
64
255
255
64
204
185
20
204
185
20
204
20
101
204
20
101
153
61
102
153
61
102
194
0
255
194
0
255
255
255
64
255
255
64
204
185
20
204
185
20
204
20
101
204
20
101
153
61
102
153
61
102
194
0
255
194
0
255
255
255
64
255
255
64
204
185
20
204
185
20
204
20
101
204
20
101
153
61
102
153
61
102
194
0
255
194
0
255
255
255
64
255
255
64
204
185
20
204
185
20
204
20
101
204
20
101
153
61
102
153
61
102
194
0
255
194
0
255
255
255
64
255
255
64
204
185
20
204
185
20
204
20
101
204
20
101
153
61
102
153
61
102
194
0
255
194
0
255
255
255
64
255
255
64
204
185
20
204
185
20
204
20
101
204
20
101
153
61
102
153
61
102
194
0
255
194
0
255
255
255
64
255
255
64
204
185
20
204
185
20
204
20
101
204
20
101
153
61
102
153
61
102
194
0
255
194
0
255
255
255
64
255
255
64
204
185
20
204
185
20
204
20
101
204
20
101
153
61
102
153
61
102
194
0
255
194
0
255
255
255
64
255
255
64
204
185
20
204
185
20
204
20
101
204
20
101
153
61
102
153
61
102
194
0
255
194
0
255
255
255
64
255
255
64
204
185
20
204
185
20
204
20
101
204
20
101
153
61
102
153
61
102
194
0
255
194
0
255
255
255
64
255
255
64
204
185
20
204
185
20
204
20
101
204
20
101
153
61
102
153
61
102
194
0
255
194
0
255
255
255
64
255
255
64
204
185
20
204
185
20
204
20
101
204
20
101
153
61
102
153
61
102
194
0
255
194
0
255
255
255
64
255
255
64
204
185
20
204
185
20
204
20
101
204
20
101
153
61
102
153
61
102
194
0
255
194
0
255
255
255
64
255
255
64
204
185
20
204
185
20
204
20
101
204
20
101
153
61
102
153
61
102
194
0
255
194
0
255
255
255
64
255
255
64
204
185
20
204
185
20
204
20
101
204
20
101
153
61
102
153
61
102
194
0
255
194
0
255
255
255
64
255
255
64
204
185
20
204
185
20
204
20
101
204
20
101
153
61
102
153
61
102
194
0
255
194
0
255
255
255
64
255
255
64
204
185
20
204
185
20
204
20
101
204
20
101
153
61
102
153
61
102
194
0
255
194
0
255
255
255
64
255
255
64
204
185
20
204
185
20
204
20
101
204
20
101
153
61
102
153
61
102
194
0
255
194
0
255
255
255
64
255
255
64
204
185
20
204
185
20
204
20
101
204
20
101
153
61
102
153
61
102
194
0
255
194
0
255
255
255
64
255
255
64
204
185
20
204
185
20
204
20
101
204
20
101
153
61
102
153
61
102
194
0
255
194
0
255
255
255
64
255
255
64
204
185
20
204
185
20
204
20
101
204
20
101
153
61
102
153
61
102
194
0
255
194
0
255
255
255
64
255
255
64
204
185
20
204
185
20
204
20
101
204
20
101
153
61
102
153
61
102
194
0
255
194
0
255
255
255
64
255
255
64
204
185
20
204
185
20
204
20
101
204
20
101
153
61
102
153
61
102
194
0
255
194
0
255
255
255
64
255
255
64
204
185
20
204
185
20
204
20
101
204
20
101
153
61
102
153
61
102
194
0
255
194
0
255
255
255
64
255
255
64
204
185
20
204
185
20
204
20
101
204
20
101
153
61
102
153
61
102
194
0
255
194
0
255
255
255
64
255
255
64
204
185
20
204
185
20
204
20
101
204
20
101
153
61
102
153
61
102
194
0
255
194
0
255
255
255
64
255
255
64
204
185
20
204
185
20
204
20
101
204
20
101
153
61
102
153
61
102
194
0
255
194
0
255
255
255
64
255
255
64
204
185
20
204
185
20
204
20
101
204
20
101
153
61
102
153
61
102
194
0
255
194
0
255
255
255
64
255
255
64
204
185
20
204
185
20
204
20
101
204
20
101
153
61
102
153
61
102
194
0
255
194
0
255
255
255
64
255
255
64
204
185
20
204
185
20
204
20
101
204
20
101
153
61
102
153
61
102
194
0
255
194
0
255
255
255
64
255
255
64
204
185
20
204
185
20
204
20
101
204
20
101
153
61
102
153
61
102
194
0
255
194
0
255
255
255
64
255
255
64
204
185
20
204
185
20
204
20
101
204
20
101
153
61
102
153
61
102
194
0
255
194
0
255
255
255
64
255
255
64
204
185
20
204
185
20
204
20
101
204
20
101
153
61
102
153
61
102
194
0
255
194
0
255
255
255
64
255
255
64
204
185
20
204
185
20
204
20
101
204
20
101
153
61
102
153
61
102
194
0
255
194
0
255
255
255
64
255
255
64
204
185
20
204
185
20
204
20
101
204
20
101
153
61
102
153
61
102
194
0
255
194
0
255
255
255
64
255
255
64
204
185
20
204
185
20
204
20
101
204
20
101
153
61
102
153
61
102
194
0
255
194
0
255
255
255
64
255
255
64
204
185
20
204
185
20
204
20
101
204
20
101
153
61
102
153
61
102
194
0
255
194
0
255
255
255
64
255
255
64
204
185
20
204
185
20
204
20
101
204
20
101
153
61
102
153
61
102
194
0
255
194
0
255
255
255
64
255
255
64
204
185
20
204
185
20
204
20
101
204
20
101
153
61
102
153
61
102
194
0
255
194
0
255
255
255
64
255
255
64
204
185
20
204
185
20
204
20
101
204
20
101
153
61
102
153
61
102
194
0
255
194
0
255
255
255
64
255
255
64
204
185
20
204
185
20
204
20
101
204
20
101
153
61
102
153
61
102
194
0
255
194
0
255
255
255
64
255
255
64
204
185
20
204
185
20
204
20
101
204
20
101
153
61
102
153
61
102
194
0
255
194
0
255
255
255
64
255
255
64
204
185
20
204
185
20
204
20
101
204
20
101
153
61
102
153
61
102
194
0
255
194
0
255
255
255
64
255
255
64
204
185
20
204
185
20
204
20
101
204
20
101
153
61
102
153
61
102
194
0
255
194
0
255
255
255
64
255
255
64
204
185
20
204
185
20
204
20
101
204
20
101
153
61
102
153
61
102
194
0
255
194
0
255
255
255
64
255
255
64
204
185
20
204
185
20
204
20
101
204
20
101
153
61
102
153
61
102
194
0
255
194
0
255
255
255
64
255
255
64
204
185
20
204
185
20
204
20
101
204
20
101
153
61
102
153
61
102
194
0
255
194
0
255
255
255
64
255
255
64
204
185
20
204
185
20
204
20
101
204
20
101
153
61
102
153
61
102
194
0
255
194
0
255
255
255
64
255
255
64
204
185
20
204
185
20
204
20
101
204
20
101
153
61
102
153
61
102
194
0
255
194
0
255
255
255
64
255
255
64
204
185
20
204
185
20
204
20
101
204
20
101
153
61
102
153
61
102
194
0
255
194
0
255
255
255
64
255
255
64
204
185
20
204
185
20
204
20
101
204
20
101
153
61
102
153
61
102
194
0
255
194
0
255
255
255
64
255
255
64
204
185
20
204
185
20
204
20
101
204
20
101
153
61
102
153
61
102
194
0
255
194
0
255
255
255
64
255
255
64
204
185
20
204
185
20
204
20
101
204
20
101
153
61
102
153
61
102
194
0
255
194
0
255
255
255
64
255
255
64
204
185
20
204
185
20
204
20
101
204
20
101
153
61
102
153
61
102
194
0
255
194
0
255
255
255
64
255
255
64
204
185
20
204
185
20
204
20
101
204
20
101
153
61
102
153
61
102
194
0
255
194
0
255
255
255
64
255
255
64
204
185
20
204
185
20
204
20
101
204
20
101
153
61
102
153
61
102
194
0
255
194
0
255
255
255
64
255
255
64
204
185
20
204
185
20
204
20
101
204
20
101
153
61
102
153
61
102
194
0
255
194
0
255
255
255
64
255
255
64
204
185
20
204
185
20
204
20
101
204
20
101
153
61
102
153
61
102
194
0
255
194
0
255
255
255
64
255
255
64
204
185
20
204
185
20
204
20
101
204
20
101
153
61
102
153
61
102
194
0
255
194
0
255
255
255
64
255
255
64
204
185
20
204
185
20
204
20
101
204
20
101
153
61
102
153
61
102
194
0
255
194
0
255
255
255
64
255
255
64
204
185
20
204
185
20
204
20
101
204
20
101
153
61
102
153
61
102
194
0
255
194
0
255
255
255
64
255
255
64
204
185
20
204
185
20
204
20
101
204
20
101
153
61
102
153
61
102
194
0
255
194
0
255
255
255
64
255
255
64
204
185
20
204
185
20
204
20
101
204
20
101
153
61
102
153
61
102
194
0
255
194
0
255
255
255
64
255
255
64
204
185
20
204
185
20
204
20
101
204
20
101
153
61
102
153
61
102
194
0
255
194
0
255
255
255
64
255
255
64
204
185
20
204
185
20
204
20
101
204
20
101
153
61
102
153
61
102
194
0
255
194
0
255
255
255
64
255
255
64
204
185
20
204
185
20
204
20
101
204
20
101
153
61
102
153
61
102
194
0
255
194
0
255
255
255
64
255
255
64
204
185
20
204
185
20
204
20
101
204
20
101
153
61
102
153
61
102
194
0
255
194
0
255
255
255
64
255
255
64
204
185
20
204
185
20
204
20
101
204
20
101
153
61
102
153
61
102
194
0
255
194
0
255
255
255
64
255
255
64
204
185
20
204
185
20
204
20
101
204
20
101
153
61
102
153
61
102
194
0
255
194
0
255
255
255
64
255
255
64
204
185
20
204
185
20
204
20
101
204
20
101
153
61
102
153
61
102
194
0
255
194
0
255
255
255
64
255
255
64
204
185
20
204
185
20
204
20
101
204
20
101
153
61
102
153
61
102
194
0
255
194
0
255
255
255
64
255
255
64
204
185
20
204
185
20
204
20
101
204
20
101
153
61
102
153
61
102
194
0
255
194
0
255
255
255
64
255
255
64
204
185
20
204
185
20
204
20
101
204
20
101
153
61
102
153
61
102
194
0
255
194
0
255
255
255
64
255
255
64
204
185
20
204
185
20
204
20
101
204
20
101
153
61
102
153
61
102
194
0
255
194
0
255
255
255
64
255
255
64
204
185
20
204
185
20
204
20
101
204
20
101
153
61
102
153
61
102
194
0
255
194
0
255
255
255
64
255
255
64
204
185
20
204
185
20
204
20
101
204
20
101
153
61
102
153
61
102
194
0
255
194
0
255
255
255
64
255
255
64
204
185
20
204
185
20
204
20
101
204
20
101
153
61
102
153
61
102
194
0
255
194
0
255
255
255
64
255
255
64
204
185
20
204
185
20
204
20
101
204
20
101
153
61
102
153
61
102
194
0
255
194
0
255
255
255
64
255
255
64
204
185
20
204
185
20
204
20
101
204
20
101
153
61
102
153
61
102
194
0
255
194
0
255
255
255
64
255
255
64
204
185
20
204
185
20
204
20
101
204
20
101
153
61
102
153
61
102
194
0
255
194
0
255
255
255
64
255
255
64
204
185
20
204
185
20
204
20
101
204
20
101
153
61
102
153
61
102
194
0
255
194
0
255
255
255
64
255
255
64
204
185
20
204
185
20
204
20
101
204
20
101
153
61
102
153
61
102
194
0
255
194
0
255
255
255
64
255
255
64
204
185
20
204
185
20
204
20
101
204
20
101
153
61
102
153
61
102
194
0
255
194
0
255
255
255
64
255
255
64
204
185
20
204
185
20
204
20
101
204
20
101
153
61
102
153
61
102
194
0
255
194
0
255
255
255
64
255
255
64
204
185
20
204
185
20
204
20
101
204
20
101
153
61
102
153
61
102
194
0
255
194
0
255
255
255
64
255
255
64
204
185
20
204
185
20
204
20
101
204
20
101
153
61
102
153
61
102
194
0
255
194
0
255
255
255
64
255
255
64
204
185
20
204
185
20
204
20
101
204
20
101
153
61
102
153
61
102
194
0
255
194
0
255
255
255
64
255
255
64
204
185
20
204
185
20
204
20
101
204
20
101
153
61
102
153
61
102
194
0
255
194
0
255
255
255
64
255
255
64
204
185
20
204
185
20
204
20
101
204
20
101
153
61
102
153
61
102
194
0
255
194
0
255
255
255
64
255
255
64
204
185
20
204
185
20
204
20
101
204
20
101
153
61
102
153
61
102
194
0
255
194
0
255
255
255
64
255
255
64
204
185
20
204
185
20
204
20
101
204
20
101
153
61
102
153
61
102
194
0
255
194
0
255
255
255
64
255
255
64
204
185
20
204
185
20
204
20
101
204
20
101
153
61
102
153
61
102
194
0
255
194
0
255
255
255
64
255
255
64
204
185
20
204
185
20
204
20
101
204
20
101
153
61
102
153
61
102
194
0
255
194
0
255
255
255
64
255
255
64
204
185
20
204
185
20
204
20
101
204
20
101
153
61
102
153
61
102
194
0
255
194
0
255
255
255
64
255
255
64
204
185
20
204
185
20
204
20
101
204
20
101
153
61
102
153
61
102
194
0
255
194
0
255
255
255
64
255
255
64
204
185
20
204
185
20
204
20
101
204
20
101
153
61
102
153
61
102
194
0
255
194
0
255
255
255
64
255
255
64
204
185
20
204
185
20
204
20
101
204
20
101
153
61
102
153
61
102
194
0
255
194
0
255
255
255
64
255
255
64
204
185
20
204
185
20
204
20
101
204
20
101
153
61
102
153
61
102
194
0
255
194
0
255
255
255
64
255
255
64
204
185
20
204
185
20
204
20
101
204
20
101
153
61
102
153
61
102
194
0
255
194
0
255
255
255
64
255
255
64
204
185
20
204
185
20
204
20
101
204
20
101
153
61
102
153
61
102
194
0
255
194
0
255
255
255
64
255
255
64
204
185
20
204
185
20
204
20
101
204
20
101
153
61
102
153
61
102
194
0
255
194
0
255
255
255
64
255
255
64
204
185
20
204
185
20
204
20
101
204
20
101
153
61
102
153
61
102
194
0
255
194
0
255
255
255
64
255
255
64
204
185
20
204
185
20
204
20
101
204
20
101
153
61
102
153
61
102
194
0
255
194
0
255
255
255
64
255
255
64
204
185
20
204
185
20
204
20
101
204
20
101
153
61
102
153
61
102
194
0
255
194
0
255
255
255
64
255
255
64
204
185
20
204
185
20
204
20
101
204
20
101
153
61
102
153
61
102
194
0
255
194
0
255
255
255
64
255
255
64
204
185
20
204
185
20
204
20
101
204
20
101
153
61
102
153
61
102
194
0
255
194
0
255
255
255
64
255
255
64
204
185
20
204
185
20
204
20
101
204
20
101
153
61
102
153
61
102
194
0
255
194
0
255
255
255
64
255
255
64
204
185
20
204
185
20
204
20
101
204
20
101
153
61
102
153
61
102
194
0
255
194
0
255
255
255
64
255
255
64
204
185
20
204
185
20
204
20
101
204
20
101
153
61
102
153
61
102
194
0
255
194
0
255
255
255
64
255
255
64
204
185
20
204
185
20
204
20
101
204
20
101
153
61
102
153
61
102
194
0
255
194
0
255
255
255
64
255
255
64
204
185
20
204
185
20
204
20
101
204
20
101
153
61
102
153
61
102
194
0
255
194
0
255
255
255
64
255
255
64
204
185
20
204
185
20
204
20
101
204
20
101
153
61
102
153
61
102
194
0
255
194
0
255
255
255
64
255
255
64
204
185
20
204
185
20
204
20
101
204
20
101
153
61
102
153
61
102
194
0
255
194
0
255
255
255
64
255
255
64
204
185
20
204
185
20
204
20
101
204
20
101
153
61
102
153
61
102
194
0
255
194
0
255
255
255
64
255
255
64
204
185
20
204
185
20
204
20
101
204
20
101
153
61
102
153
61
102
194
0
255
194
0
255
255
255
64
255
255
64
204
185
20
204
185
20
204
20
101
204
20
101
153
61
102
153
61
102
194
0
255
194
0
255
255
255
64
255
255
64
204
185
20
204
185
20
204
20
101
204
20
101
153
61
102
153
61
102
194
0
255
194
0
255
255
255
64
255
255
64
204
185
20
204
185
20
204
20
101
204
20
101
153
61
102
153
61
102
194
0
255
194
0
255
255
255
64
255
255
64
204
185
20
204
185
20
204
20
101
204
20
101
153
61
102
153
61
102
194
0
255
194
0
255
255
255
64
255
255
64
204
185
20
204
185
20
204
20
101
204
20
101
153
61
102
153
61
102
194
0
255
194
0
255
255
255
64
255
255
64
204
185
20
204
185
20
204
20
101
204
20
101
153
61
102
153
61
102
194
0
255
194
0
255
255
255
64
255
255
64
204
185
20
204
185
20
204
20
101
204
20
101
153
61
102
153
61
102
194
0
255
194
0
255
255
255
64
255
255
64
204
185
20
204
185
20
204
20
101
204
20
101
153
61
102
153
61
102
194
0
255
194
0
255
255
255
64
255
255
64
204
185
20
204
185
20
204
20
101
204
20
101
153
61
102
153
61
102
194
0
255
194
0
255
255
255
64
255
255
64
204
185
20
204
185
20
204
20
101
204
20
101
153
61
102
153
61
102
194
0
255
194
0
255
255
255
64
255
255
64
204
185
20
204
185
20
204
20
101
204
20
101
153
61
102
153
61
102
194
0
255
194
0
255
255
255
64
255
255
64
204
185
20
204
185
20
204
20
101
204
20
101
153
61
102
153
61
102
194
0
255
194
0
255
255
255
64
255
255
64
204
185
20
204
185
20
204
20
101
204
20
101
153
61
102
153
61
102
194
0
255
194
0
255
255
255
64
255
255
64
204
185
20
204
185
20
204
20
101
204
20
101
153
61
102
153
61
102
194
0
255
194
0
255
255
255
64
255
255
64
204
185
20
204
185
20
204
20
101
204
20
101
153
61
102
153
61
102
194
0
255
194
0
255
255
255
64
255
255
64
204
185
20
204
185
20
204
20
101
204
20
101
153
61
102
153
61
102
194
0
255
194
0
255
255
255
64
255
255
64
204
185
20
204
185
20
204
20
101
204
20
101
153
61
102
153
61
102
194
0
255
194
0
255
255
255
64
255
255
64
204
185
20
204
185
20
204
20
101
204
20
101
153
61
102
153
61
102
194
0
255
194
0
255
255
255
64
255
255
64
204
185
20
204
185
20
204
20
101
204
20
101
153
61
102
153
61
102
194
0
255
194
0
255
255
255
64
255
255
64
204
185
20
204
185
20
204
20
101
204
20
101
153
61
102
153
61
102
194
0
255
194
0
255
255
255
64
255
255
64
204
185
20
204
185
20
204
20
101
204
20
101
153
61
102
153
61
102
194
0
255
194
0
255
255
255
64
255
255
64
204
185
20
204
185
20
204
20
101
204
20
101
153
61
102
153
61
102
194
0
255
194
0
255
255
255
64
255
255
64
204
185
20
204
185
20
204
20
101
204
20
101
153
61
102
153
61
102
194
0
255
194
0
255
255
255
64
255
255
64
204
185
20
204
185
20
204
20
101
204
20
101
153
61
102
153
61
102
194
0
255
194
0
255
255
255
64
255
255
64
204
185
20
204
185
20
204
20
101
204
20
101
153
61
102
153
61
102
194
0
255
194
0
255
255
255
64
255
255
64
204
185
20
204
185
20
204
20
101
204
20
101
153
61
102
153
61
102
194
0
255
194
0
255
255
255
64
255
255
64
204
185
20
204
185
20
204
20
101
204
20
101
153
61
102
153
61
102
194
0
255
194
0
255
255
255
64
255
255
64
204
185
20
204
185
20
204
20
101
204
20
101
153
61
102
153
61
102
194
0
255
194
0
255
255
255
64
255
255
64
204
185
20
204
185
20
204
20
101
204
20
101
153
61
102
153
61
102
194
0
255
194
0
255
255
255
64
255
255
64
204
185
20
204
185
20
204
20
101
204
20
101
153
61
102
153
61
102
194
0
255
194
0
255
255
255
64
255
255
64
204
185
20
204
185
20
204
20
101
204
20
101
153
61
102
153
61
102
194
0
255
194
0
255
255
255
64
255
255
64
204
185
20
204
185
20
204
20
101
204
20
101
153
61
102
153
61
102
194
0
255
194
0
255
255
255
64
255
255
64
204
185
20
204
185
20
204
20
101
204
20
101
153
61
102
153
61
102
194
0
255
194
0
255
255
255
64
255
255
64
204
185
20
204
185
20
204
20
101
204
20
101
153
61
102
153
61
102
194
0
255
194
0
255
255
255
64
255
255
64
204
185
20
204
185
20
204
20
101
204
20
101
153
61
102
153
61
102
194
0
255
194
0
255
255
255
64
255
255
64
204
185
20
204
185
20
204
20
101
204
20
101
153
61
102
153
61
102
194
0
255
194
0
255
255
255
64
255
255
64
204
185
20
204
185
20
204
20
101
204
20
101
153
61
102
153
61
102
194
0
255
194
0
255
255
255
64
255
255
64
204
185
20
204
185
20
204
20
101
204
20
101
153
61
102
153
61
102
194
0
255
194
0
255
255
255
64
255
255
64
204
185
20
204
185
20
204
20
101
204
20
101
153
61
102
153
61
102
194
0
255
194
0
255
255
255
64
255
255
64
204
185
20
204
185
20
204
20
101
204
20
101
153
61
102
153
61
102
194
0
255
194
0
255
255
255
64
255
255
64
204
185
20
204
185
20
204
20
101
204
20
101
153
61
102
153
61
102
194
0
255
194
0
255
255
255
64
255
255
64
204
185
20
204
185
20
204
20
101
204
20
101
153
61
102
153
61
102
194
0
255
194
0
255
255
255
64
255
255
64
204
185
20
204
185
20
204
20
101
204
20
101
153
61
102
153
61
102
194
0
255
194
0
255
255
255
64
255
255
64
204
185
20
204
185
20
204
20
101
204
20
101
153
61
102
153
61
102
194
0
255
194
0
255
255
255
64
255
255
64
204
185
20
204
185
20
204
20
101
204
20
101
153
61
102
153
61
102
194
0
255
194
0
255
255
255
64
255
255
64
204
185
20
204
185
20
204
20
101
204
20
101
153
61
102
153
61
102
194
0
255
194
0
255
255
255
64
255
255
64
204
185
20
204
185
20
204
20
101
204
20
101
153
61
102
153
61
102
194
0
255
194
0
255
255
255
64
255
255
64
204
185
20
204
185
20
204
20
101
204
20
101
153
61
102
153
61
102
194
0
255
194
0
255
255
255
64
255
255
64
204
185
20
204
185
20
204
20
101
204
20
101
153
61
102
153
61
102
194
0
255
194
0
255
255
255
64
255
255
64
204
185
20
204
185
20
204
20
101
204
20
101
153
61
102
153
61
102
194
0
255
194
0
255
255
255
64
255
255
64
204
185
20
204
185
20
204
20
101
204
20
101
153
61
102
153
61
102
194
0
255
194
0
255
255
255
64
255
255
64
204
185
20
204
185
20
204
20
101
204
20
101
153
61
102
153
61
102
194
0
255
194
0
255
255
255
64
255
255
64
204
185
20
204
185
20
204
20
101
204
20
101
153
61
102
153
61
102
194
0
255
194
0
255
255
255
64
255
255
64
204
185
20
204
185
20
204
20
101
204
20
101
153
61
102
153
61
102
194
0
255
194
0
255
255
255
64
255
255
64
204
185
20
204
185
20
204
20
101
204
20
101
153
61
102
153
61
102
194
0
255
194
0
255
255
255
64
255
255
64
204
185
20
204
185
20
204
20
101
204
20
101
153
61
102
153
61
102
194
0
255
194
0
255
255
255
64
255
255
64
204
185
20
204
185
20
204
20
101
204
20
101
153
61
102
153
61
102
194
0
255
194
0
255
255
255
64
255
255
64
204
185
20
204
185
20
204
20
101
204
20
101
153
61
102
153
61
102
194
0
255
194
0
255
255
255
64
255
255
64
204
185
20
204
185
20
204
20
101
204
20
101
153
61
102
153
61
102
194
0
255
194
0
255
255
255
64
255
255
64
204
185
20
204
185
20
204
20
101
204
20
101
153
61
102
153
61
102
194
0
255
194
0
255
255
255
64
255
255
64
204
185
20
204
185
20
204
20
101
204
20
101
153
61
102
153
61
102
194
0
255
194
0
255
255
255
64
255
255
64
204
185
20
204
185
20
204
20
101
204
20
101
153
61
102
153
61
102
194
0
255
194
0
255
255
255
64
255
255
64
204
185
20
204
185
20
204
20
101
204
20
101
153
61
102
153
61
102
194
0
255
194
0
255
255
255
64
255
255
64
204
185
20
204
185
20
204
20
101
204
20
101
153
61
102
153
61
102
194
0
255
194
0
255
255
255
64
255
255
64
204
185
20
204
185
20
204
20
101
204
20
101
153
61
102
153
61
102
194
0
255
194
0
255
255
255
64
255
255
64
204
185
20
204
185
20
204
20
101
204
20
101
153
61
102
153
61
102
194
0
255
194
0
255
255
255
64
255
255
64
204
185
20
204
185
20
204
20
101
204
20
101
153
61
102
153
61
102
194
0
255
194
0
255
255
255
64
255
255
64
204
185
20
204
185
20
204
20
101
204
20
101
153
61
102
153
61
102
194
0
255
194
0
255
255
255
64
255
255
64
204
185
20
204
185
20
204
20
101
204
20
101
153
61
102
153
61
102
194
0
255
194
0
255
255
255
64
255
255
64
204
185
20
204
185
20
204
20
101
204
20
101
153
61
102
153
61
102
194
0
255
194
0
255
255
255
64
255
255
64
204
185
20
204
185
20
204
20
101
204
20
101
153
61
102
153
61
102
194
0
255
194
0
255
255
255
64
255
255
64
204
185
20
204
185
20
204
20
101
204
20
101
153
61
102
153
61
102
194
0
255
194
0
255
255
255
64
255
255
64
204
185
20
204
185
20
204
20
101
204
20
101
153
61
102
153
61
102
194
0
255
194
0
255
255
255
64
255
255
64
204
185
20
204
185
20
204
20
101
204
20
101
153
61
102
153
61
102
194
0
255
194
0
255
255
255
64
255
255
64
204
185
20
204
185
20
204
20
101
204
20
101
153
61
102
153
61
102
194
0
255
194
0
255
255
255
64
255
255
64
204
185
20
204
185
20
204
20
101
204
20
101
153
61
102
153
61
102
194
0
255
194
0
255
255
255
64
255
255
64
204
185
20
204
185
20
204
20
101
204
20
101
153
61
102
153
61
102
194
0
255
194
0
255
255
255
64
255
255
64
204
185
20
204
185
20
204
20
101
204
20
101
153
61
102
153
61
102
194
0
255
194
0
255
255
255
64
255
255
64
204
185
20
204
185
20
204
20
101
204
20
101
153
61
102
153
61
102
194
0
255
194
0
255
255
255
64
255
255
64
204
185
20
204
185
20
204
20
101
204
20
101
153
61
102
153
61
102
194
0
255
194
0
255
255
255
64
255
255
64
204
185
20
204
185
20
204
20
101
204
20
101
153
61
102
153
61
102
194
0
255
194
0
255
255
255
64
255
255
64
204
185
20
204
185
20
204
20
101
204
20
101
153
61
102
153
61
102
194
0
255
194
0
255
255
255
64
255
255
64
204
185
20
204
185
20
204
20
101
204
20
101
153
61
102
153
61
102
194
0
255
194
0
255
255
255
64
255
255
64
204
185
20
204
185
20
204
20
101
204
20
101
153
61
102
153
61
102
194
0
255
194
0
255
255
255
64
255
255
64
204
185
20
204
185
20
204
20
101
204
20
101
153
61
102
153
61
102
194
0
255
194
0
255
255
255
64
255
255
64
204
185
20
204
185
20
204
20
101
204
20
101
153
61
102
153
61
102
194
0
255
194
0
255
255
255
64
255
255
64
204
185
20
204
185
20
204
20
101
204
20
101
153
61
102
153
61
102
194
0
255
194
0
255
255
255
64
255
255
64
204
185
20
204
185
20
204
20
101
204
20
101
153
61
102
153
61
102
194
0
255
194
0
255
255
255
64
255
255
64
204
185
20
204
185
20
204
20
101
204
20
101
153
61
102
153
61
102
194
0
255
194
0
255
255
255
64
255
255
64
204
185
20
204
185
20
204
20
101
204
20
101
153
61
102
153
61
102
194
0
255
194
0
255
255
255
64
255
255
64
204
185
20
204
185
20
204
20
101
204
20
101
153
61
102
153
61
102
194
0
255
194
0
255
255
255
64
255
255
64
204
185
20
204
185
20
204
20
101
204
20
101
153
61
102
153
61
102
194
0
255
194
0
255
255
255
64
255
255
64
204
185
20
204
185
20
204
20
101
204
20
101
153
61
102
153
61
102
194
0
255
194
0
255
255
255
64
255
255
64
204
185
20
204
185
20
204
20
101
204
20
101
153
61
102
153
61
102
194
0
255
194
0
255
255
255
64
255
255
64
204
185
20
204
185
20
204
20
101
204
20
101
153
61
102
153
61
102
194
0
255
194
0
255
255
255
64
255
255
64
204
185
20
204
185
20
204
20
101
204
20
101
153
61
102
153
61
102
194
0
255
194
0
255
255
255
64
255
255
64
204
185
20
204
185
20
204
20
101
204
20
101
153
61
102
153
61
102
194
0
255
194
0
255
255
255
64
255
255
64
204
185
20
204
185
20
204
20
101
204
20
101
153
61
102
153
61
102
194
0
255
194
0
255
255
255
64
255
255
64
204
185
20
204
185
20
204
20
101
204
20
101
153
61
102
153
61
102
194
0
255
194
0
255
255
255
64
255
255
64
204
185
20
204
185
20
204
20
101
204
20
101
153
61
102
153
61
102
194
0
255
194
0
255
255
255
64
255
255
64
204
185
20
204
185
20
204
20
101
204
20
101
153
61
102
153
61
102
194
0
255
194
0
255
255
255
64
255
255
64
204
185
20
204
185
20
204
20
101
204
20
101
153
61
102
153
61
102
194
0
255
194
0
255
255
255
64
255
255
64
204
185
20
204
185
20
204
20
101
204
20
101
153
61
102
153
61
102
194
0
255
194
0
255
255
255
64
255
255
64
204
185
20
204
185
20
204
20
101
204
20
101
153
61
102
153
61
102
194
0
255
194
0
255
255
255
64
255
255
64
204
185
20
204
185
20
204
20
101
204
20
101
153
61
102
153
61
102
194
0
255
194
0
255
255
255
64
255
255
64
204
185
20
204
185
20
204
20
101
204
20
101
153
61
102
153
61
102
194
0
255
194
0
255
255
255
64
255
255
64
204
185
20
204
185
20
204
20
101
204
20
101
153
61
102
153
61
102
194
0
255
194
0
255
255
255
64
255
255
64
204
185
20
204
185
20
204
20
101
204
20
101
153
61
102
153
61
102
194
0
255
194
0
255
255
255
64
255
255
64
204
185
20
204
185
20
204
20
101
204
20
101
153
61
102
153
61
102
194
0
255
194
0
255
255
255
64
255
255
64
204
185
20
204
185
20
204
20
101
204
20
101
153
61
102
153
61
102
194
0
255
194
0
255
255
255
64
255
255
64
204
185
20
204
185
20
204
20
101
204
20
101
153
61
102
153
61
102
194
0
255
194
0
255
255
255
64
255
255
64
204
185
20
204
185
20
204
20
101
204
20
101
153
61
102
153
61
102
194
0
255
194
0
255
255
255
64
255
255
64
204
185
20
204
185
20
204
20
101
204
20
101
153
61
102
153
61
102
194
0
255
194
0
255
255
255
64
255
255
64
204
185
20
204
185
20
204
20
101
204
20
101
153
61
102
153
61
102
194
0
255
194
0
255
255
255
64
255
255
64
204
185
20
204
185
20
204
20
101
204
20
101
153
61
102
153
61
102
194
0
255
194
0
255
255
255
64
255
255
64
204
185
20
204
185
20
204
20
101
204
20
101
153
61
102
153
61
102
194
0
255
194
0
255
255
255
64
255
255
64
204
185
20
204
185
20
